<svg xmlns:xlink="http://www.w3.org/1999/xlink" xmlns="http://www.w3.org/2000/svg" viewBox="0 0 16 16" preserveAspectRatio="xMidYMid meet" focusable="false" class="style-scope yt-icon" style="pointer-events: none; display: block; width: 100%; height: 100%;" width="16"  height="16" ><g class="style-scope yt-icon" fill="#FF0000"><path d="M9 8.00004C9 8.55004 8.55 9.00004 8 9.00004C7.45 9.00004 7 8.55004 7 8.00004C7 7.45004 7.45 7.00004 8 7.00004C8.55 7.00004 9 7.45004 9 8.00004ZM10.11 10.13L10.82 10.84C11.55 10.11 12 9.11004 12 8.00004C12 6.89004 11.55 5.89004 10.82 5.16004L10.11 5.87004C10.66 6.42004 11 7.17004 11 8.00004C11 8.83004 10.66 9.58004 10.11 10.13ZM5.18 10.84L5.89 10.13C5.34 9.58004 5 8.83004 5 8.00004C5 7.17004 5.34 6.42004 5.89 5.87004L5.18 5.16004C4.45 5.89004 4 6.89004 4 8.00004C4 9.11004 4.45 10.11 5.18 10.84ZM12.23 12.25L12.94 12.96C14.21 11.69 15 9.94004 15 8.00004C15 6.06004 14.21 4.31004 12.94 3.04004L12.23 3.75004C13.32 4.84004 14 6.34004 14 8.00004C14 9.66004 13.32 11.16 12.23 12.25ZM3.06 12.96L3.77 12.25C2.68 11.16 2 9.66004 2 8.00004C2 6.34004 2.68 4.84004 3.77 3.75004L3.06 3.04004C1.79 4.31004 1 6.06004 1 8.00004C1 9.94004 1.79 11.69 3.06 12.96Z" class="style-scope yt-icon" fill="#FF0000"></path></g></svg>